<?xml version="1.0" encoding="UTF-8"?>
<svg width="220" height="50" version="1.1" viewBox="0 0 58.208 13.229" xmlns="http://www.w3.org/2000/svg">
 <g transform="translate(0 -283.77)" shape-rendering="auto">
  <path d="m26.596 286.14 2.0918 7.9707h2.2871l0.04883-0.19922 0.92187-3.666 0.85352 3.8652h2.291l2.3203-7.9707h-1.8262l-1.127 4.5234-1.002-4.5234h-2.3086l-0.89648 4.3203-1.0078-4.3203z" color="#000000" color-rendering="auto" dominant-baseline="auto" fill="#54be90" image-rendering="auto" solid-color="#000000" style="font-feature-settings:normal;font-variant-alternates:normal;font-variant-caps:normal;font-variant-ligatures:normal;font-variant-numeric:normal;font-variant-position:normal;isolation:auto;mix-blend-mode:normal;shape-padding:0;text-decoration-color:#000000;text-decoration-line:none;text-decoration-style:solid;text-indent:0;text-orientation:mixed;text-transform:none;white-space:normal"/>
  <path d="m23.641 287.46c-0.42309 0-0.81479 0.0764-1.168 0.23243-0.34644 0.1518-0.64789 0.36633-0.89844 0.63867-0.248 0.2698-0.43976 0.59009-0.57422 0.95312-0.13501 0.36454-0.20312 0.75601-0.20312 1.1738v2.9727h1.8965v-1.3281h1.6348v-1.0137h-1.6348v-0.86523c0-0.1266 0.0025-0.26208 0.0098-0.4043v-4e-3c0.0096-0.13947 0.02883-0.27576 0.05469-0.41015v-2e-3c0.02818-0.13569 0.06526-0.26275 0.11133-0.38281v-2e-3c0.0457-0.1127 0.10325-0.20616 0.17383-0.28711 0.07111-0.0813 0.15501-0.14407 0.25586-0.19141 0.09506-0.0456 0.21711-0.0723 0.36914-0.0723 0.17076 0 0.296 0.0336 0.39062 0.0918l2e-3 2e-3c0.10873 0.0656 0.19363 0.14845 0.26172 0.25781v2e-3h0.0019c0.07357 0.11469 0.12947 0.24836 0.16797 0.40235 0.04055 0.1598 0.06915 0.32581 0.08594 0.49609v2e-3c0.01945 0.17267 0.0293 0.34271 0.0293 0.50977v2e-3c0.0025 0.17128 0.0039 0.32552 0.0039 0.46094 0 0.16893-0.0066 0.34874-0.02148 0.53906v2e-3c-0.01233 0.18736-0.03334 0.37881-0.06055 0.57422-0.02718 0.1952-0.06144 0.39184-0.10352 0.58985v2e-3c-0.03929 0.19644-0.0882 0.38808-0.14453 0.57422-0.05635 0.1862-0.11885 0.36326-0.18945 0.53125l-2e-3 2e-3v2e-3c-0.06746 0.16864-0.14167 0.32111-0.22461 0.46093l-0.10156 0.16992 0.85547 0.49415 0.10547-0.0918c0.16646-0.14499 0.32449-0.31033 0.47266-0.49805v-2e-3c0.14666-0.18345 0.28306-0.38086 0.4082-0.5918l2e-3 -2e-3c0.128-0.2092 0.24207-0.42877 0.34375-0.65821 0.10163-0.22931 0.18862-0.46229 0.26172-0.69726 0.07318-0.23522 0.13049-0.47098 0.16992-0.70703v-2e-3c0.04184-0.23588 0.06501-0.46495 0.07031-0.6875v-0.0723c0.0054-0.26547-0.01988-0.52906-0.07617-0.78906-0.05594-0.2584-0.13842-0.50522-0.24805-0.73828l-0.0019-2e-3c-0.10768-0.23364-0.24428-0.44994-0.4082-0.64648l-2e-3 -2e-3c-0.1621-0.19952-0.34815-0.3718-0.55664-0.51563l-2e-3 -2e-3c-0.21036-0.1472-0.44345-0.26257-0.69726-0.34375h-2e-3c-0.25597-0.0851-0.52957-0.12696-0.81836-0.12696z" color="#000000" color-rendering="auto" dominant-baseline="auto" fill="#232323" image-rendering="auto" solid-color="#000000" style="font-feature-settings:normal;font-variant-alternates:normal;font-variant-caps:normal;font-variant-ligatures:normal;font-variant-numeric:normal;font-variant-position:normal;isolation:auto;mix-blend-mode:normal;shape-padding:0;text-decoration-color:#000000;text-decoration-line:none;text-decoration-style:solid;text-indent:0;text-orientation:mixed;text-transform:none;white-space:normal"/>
 </g>
</svg>
