<?xml version="1.0" encoding="UTF-8" standalone="no"?>
<!-- Created with Inkscape (http://www.inkscape.org/) -->

<svg
   xmlns:dc="http://purl.org/dc/elements/1.1/"
   xmlns:cc="http://creativecommons.org/ns#"
   xmlns:rdf="http://www.w3.org/1999/02/22-rdf-syntax-ns#"
   xmlns:svg="http://www.w3.org/2000/svg"
   xmlns="http://www.w3.org/2000/svg"
   xmlns:xlink="http://www.w3.org/1999/xlink"
   xmlns:sodipodi="http://sodipodi.sourceforge.net/DTD/sodipodi-0.dtd"
   xmlns:inkscape="http://www.inkscape.org/namespaces/inkscape"
   width="210mm"
   height="297mm"
   viewBox="0 0 210 297"
   version="1.1"
   id="svg8"
   inkscape:version="0.92.3 (2405546, 2018-03-11)"
   sodipodi:docname="logo-layer.svg">
  <defs
     id="defs2">
    <clipPath
       clipPathUnits="userSpaceOnUse"
       id="clipPath852">
      <use
         x="0"
         y="0"
         xlink:href="#g848"
         id="use854"
         width="100%"
         height="100%" />
    </clipPath>
  </defs>
  <sodipodi:namedview
     id="base"
     pagecolor="#ffffff"
     bordercolor="#666666"
     borderopacity="1.0"
     inkscape:pageopacity="0.0"
     inkscape:pageshadow="2"
     inkscape:zoom="0.9746159"
     inkscape:cx="585.50897"
     inkscape:cy="628.37933"
     inkscape:document-units="px"
     inkscape:current-layer="layer2"
     showgrid="false"
     showborder="false"
     inkscape:object-paths="true"
     inkscape:snap-intersection-paths="true"
     inkscape:snap-smooth-nodes="true"
     inkscape:window-width="1920"
     inkscape:window-height="986"
     inkscape:window-x="-11"
     inkscape:window-y="-11"
     inkscape:window-maximized="1"
     inkscape:pagecheckerboard="true" />
  <metadata
     id="metadata5">
    <rdf:RDF>
      <cc:Work
         rdf:about="">
        <dc:format>image/svg+xml</dc:format>
        <dc:type
           rdf:resource="http://purl.org/dc/dcmitype/StillImage" />
        <dc:title></dc:title>
      </cc:Work>
    </rdf:RDF>
  </metadata>
  <g
     inkscape:groupmode="layer"
     id="layer2"
     inkscape:label="Layer 2">
    <g
       id="g850"
       clip-path="url(#clipPath852)"
       transform="translate(-10.73131,-37.188649)"
       style="fill:#0000ff">
      <g
         inkscape:label="Clip"
         id="g848"
         style="fill:#0000ff">
        <path
           inkscape:connector-curvature="0"
           id="path822-0"
           d="m 181.51985,162.07718 a 29.765625,29.765625 0 0 1 -29.76562,29.76563 29.765625,29.765625 0 0 1 -29.76563,-29.76563 29.765625,29.765625 0 0 1 29.76563,-29.76562 29.765625,29.765625 0 0 1 29.76562,29.76562 z"
           style="opacity:0.5;fill:#0000ff;stroke-width:0.16003025" />
      </g>
    </g>
  </g>
  <g
     inkscape:label="Layer 1"
     inkscape:groupmode="layer"
     id="layer1">
    <path
       style="opacity:0.5;stroke-width:0.21337366;fill:#00ff00"
       d="m 180.71042,134.81041 a 39.687501,39.687501 0 0 1 -39.6875,39.6875 39.687501,39.687501 0 0 1 -39.6875,-39.6875 39.687501,39.687501 0 0 1 39.6875,-39.687499 39.687501,39.687501 0 0 1 39.6875,39.687499 z"
       id="path817"
       inkscape:connector-curvature="0" />
    <path
       style="opacity:0.5;stroke-width:0.16003025"
       d="m 170.78854,144.73228 a 29.765625,29.765625 0 0 1 -29.76562,29.76563 29.765625,29.765625 0 0 1 -29.76563,-29.76563 29.765625,29.765625 0 0 1 29.76563,-29.76562 29.765625,29.765625 0 0 1 29.76562,29.76562 z"
       id="path822"
       inkscape:connector-curvature="0" />
    <path
       inkscape:connector-curvature="0"
       id="path820"
       d="m 160.86667,134.81041 a 19.84375,19.84375 0 0 1 -19.84375,19.84375 19.84375,19.84375 0 0 1 -19.84375,-19.84375 19.84375,19.84375 0 0 1 19.84375,-19.84375 19.84375,19.84375 0 0 1 19.84375,19.84375 z"
       style="opacity:0.5;stroke-width:0.10668683;fill:#00ff00" />
    <path
       sodipodi:type="spiral"
       style="fill:#0000ff;fill-rule:evenodd;stroke:#000000;stroke-width:0.26458332"
       id="path829"
       sodipodi:cx="140.75833"
       sodipodi:cy="133.75208"
       sodipodi:expansion="1"
       sodipodi:revolution="3"
       sodipodi:radius="12.256806"
       sodipodi:argument="-19.089298"
       sodipodi:t0="0"
       d="m 140.75833,133.75208 c 0.59696,-0.14593 0.49122,0.73269 0.24254,0.99218 -0.67393,0.70321 -1.79431,0.20179 -2.22691,-0.50712 -0.77383,-1.26807 0.0136,-2.86288 1.25677,-3.46163 1.8244,-0.87869 3.94904,0.22684 4.69635,2.00643 0.99606,2.37192 -0.43862,5.04184 -2.75608,5.93107 -2.91628,1.11901 -6.13792,-0.64957 -7.16579,-3.50573 -1.2449,-3.4592 0.86,-7.23585 4.25538,-8.40052 4.00135,-1.37252 8.33495,1.07012 9.63524,5.00504 1.50124,4.54303 -1.28001,9.43482 -5.75469,10.86996 -5.08443,1.6307 -10.53524,-1.48975 -12.10469,-6.50435 -1.76068,-5.62561 1.6994,-11.63604 7.25401,-13.3394 6.16667,-1.89105 12.73715,1.90895 14.57412,8.00366" />
  </g>
</svg>
