<?xml version="1.0" encoding="UTF-8" standalone="no"?>
<!-- Created with Inkscape (http://www.inkscape.org/) -->

<svg
   xmlns:dc="http://purl.org/dc/elements/1.1/"
   xmlns:cc="http://creativecommons.org/ns#"
   xmlns:rdf="http://www.w3.org/1999/02/22-rdf-syntax-ns#"
   xmlns:svg="http://www.w3.org/2000/svg"
   xmlns="http://www.w3.org/2000/svg"
   xmlns:xlink="http://www.w3.org/1999/xlink"
   xmlns:sodipodi="http://sodipodi.sourceforge.net/DTD/sodipodi-0.dtd"
   xmlns:inkscape="http://www.inkscape.org/namespaces/inkscape"
   width="16"
   height="16"
   viewBox="0 0 16 16"
   version="1.1"
   id="svg8"
   inkscape:version="0.92.3 (2405546, 2018-03-11)"
   sodipodi:docname="logo-16px.svg">
  <defs
     id="defs2">
    <clipPath
       clipPathUnits="userSpaceOnUse"
       id="clipPath852">
      <g
         style="fill:#0000ff"
         id="use854"
         inkscape:label="Clip">
        <path
           style="opacity:0.5;fill:#0000ff;stroke-width:0.16003025"
           d="m 181.51985,162.07718 a 29.765625,29.765625 0 0 1 -29.76562,29.76563 29.765625,29.765625 0 0 1 -29.76563,-29.76563 29.765625,29.765625 0 0 1 29.76563,-29.76562 29.765625,29.765625 0 0 1 29.76562,29.76562 z"
           id="path946"
           inkscape:connector-curvature="0" />
      </g>
    </clipPath>
    <clipPath
       clipPathUnits="userSpaceOnUse"
       id="clipPath852-7">
      <g
         style="fill:#0000ff"
         id="use854-7"
         inkscape:label="Clip">
        <path
           style="opacity:0.5;fill:#0000ff;stroke-width:0.16003025"
           d="m 181.51985,162.07718 a 29.765625,29.765625 0 0 1 -29.76562,29.76563 29.765625,29.765625 0 0 1 -29.76563,-29.76563 29.765625,29.765625 0 0 1 29.76563,-29.76562 29.765625,29.765625 0 0 1 29.76562,29.76562 z"
           id="path924"
           inkscape:connector-curvature="0" />
      </g>
    </clipPath>
    <clipPath
       clipPathUnits="userSpaceOnUse"
       id="clipPath852-6">
      <use
         x="0"
         y="0"
         xlink:href="#g848"
         id="use854-8"
         width="100%"
         height="100%" />
    </clipPath>
  </defs>
  <sodipodi:namedview
     id="base"
     pagecolor="#ffffff"
     bordercolor="#666666"
     borderopacity="1.0"
     inkscape:pageopacity="0.0"
     inkscape:pageshadow="2"
     inkscape:zoom="5.5132601"
     inkscape:cx="62.167528"
     inkscape:cy="3.1699058"
     inkscape:document-units="px"
     inkscape:current-layer="layer1"
     showgrid="false"
     showborder="true"
     inkscape:object-paths="true"
     inkscape:snap-intersection-paths="true"
     inkscape:snap-smooth-nodes="true"
     inkscape:window-width="1920"
     inkscape:window-height="986"
     inkscape:window-x="-11"
     inkscape:window-y="-11"
     inkscape:window-maximized="1"
     inkscape:pagecheckerboard="true"
     units="px"
     scale-x="0.30001"
     fit-margin-top="0"
     fit-margin-left="0"
     fit-margin-right="0"
     fit-margin-bottom="0"
     borderlayer="false" />
  <metadata
     id="metadata5">
    <rdf:RDF>
      <cc:Work
         rdf:about="">
        <dc:format>image/svg+xml</dc:format>
        <dc:type
           rdf:resource="http://purl.org/dc/dcmitype/StillImage" />
        <dc:title></dc:title>
      </cc:Work>
    </rdf:RDF>
  </metadata>
  <g
     inkscape:groupmode="layer"
     id="layer2"
     inkscape:label="Layer 2"
     transform="translate(-148.43247,-190.32195)" />
  <g
     inkscape:label="Layer 1"
     inkscape:groupmode="layer"
     id="layer1"
     transform="translate(-148.43247,-190.32195)">
    <g
       id="g850"
       clip-path="url(#clipPath852-6)"
       transform="matrix(0.17929959,0,0,0.17929959,129.60867,167.32394)"
       style="fill:#0000ff">
      <g
         inkscape:label="Clip"
         id="g848"
         style="fill:#0000ff">
        <path
           inkscape:connector-curvature="0"
           id="path822-0"
           d="m 181.51985,162.07718 a 29.765625,29.765625 0 0 1 -29.76562,29.76563 29.765625,29.765625 0 0 1 -29.76563,-29.76563 29.765625,29.765625 0 0 1 29.76563,-29.76562 29.765625,29.765625 0 0 1 29.76562,29.76562 z"
           style="opacity:0.5;fill:#0000ff;stroke-width:0.16003025" />
      </g>
    </g>
    <path
       style="opacity:0.5;fill:#00ff00;stroke-width:0.03825782"
       d="m 163.9341,198.16345 a 7.1159529,7.1159529 0 0 1 -7.11595,7.116 7.1159529,7.1159529 0 0 1 -7.11595,-7.116 7.1159529,7.1159529 0 0 1 7.11595,-7.11572 7.1159529,7.1159529 0 0 1 7.11595,7.11572 z"
       id="path817"
       inkscape:connector-curvature="0" />
    <path
       style="opacity:0.5;stroke-width:0.02869335"
       d="m 162.15512,199.94266 a 5.3369646,5.3369646 0 0 1 -5.33697,5.33679 5.3369646,5.3369646 0 0 1 -5.33696,-5.33679 5.3369646,5.3369646 0 0 1 5.33696,-5.33708 5.3369646,5.3369646 0 0 1 5.33697,5.33708 z"
       id="path822"
       inkscape:connector-curvature="0" />
    <path
       inkscape:connector-curvature="0"
       id="path820"
       d="m 160.37613,198.16345 a 3.5579766,3.5579766 0 0 1 -3.55798,3.55815 3.5579766,3.5579766 0 0 1 -3.55797,-3.55815 3.5579766,3.5579766 0 0 1 3.55797,-3.55787 3.5579766,3.5579766 0 0 1 3.55798,3.55787 z"
       style="opacity:0.5;fill:#00ff00;stroke-width:0.0191289" />
    <path
       sodipodi:type="spiral"
       style="fill:#0000ff;fill-rule:evenodd;stroke:#000000;stroke-width:0.0474397"
       id="path829"
       sodipodi:cx="156.77071"
       sodipodi:cy="197.9735"
       sodipodi:expansion="1"
       sodipodi:revolution="3"
       sodipodi:radius="2.1976404"
       sodipodi:argument="-19.089298"
       sodipodi:t0="0"
       d="m 156.77071,197.9735 c 0.10703,-0.0262 0.0881,0.13137 0.0435,0.17789 -0.12083,0.12609 -0.32172,0.0362 -0.39928,-0.0909 -0.13875,-0.22737 0.002,-0.51332 0.22534,-0.62067 0.32711,-0.15755 0.70806,0.0407 0.84205,0.35975 0.17859,0.42528 -0.0786,0.904 -0.49416,1.06344 -0.52289,0.20064 -1.10053,-0.11647 -1.28483,-0.62858 -0.22321,-0.62023 0.1542,-1.29738 0.76299,-1.50621 0.71744,-0.24609 1.49445,0.19187 1.7276,0.89741 0.26917,0.81456 -0.22951,1.69165 -1.03182,1.94898 -0.91163,0.29238 -1.88896,-0.26712 -2.17036,-1.16623 -0.31569,-1.00867 0.3047,-2.08634 1.30064,-2.39175 1.10568,-0.33907 2.28376,0.34227 2.61313,1.43505" />
  </g>
</svg>
